<svg width="400" height="250" viewBox="0 0 400 250" xmlns="http://www.w3.org/2000/svg">
  <defs>
    <linearGradient id="chatGrad" x1="0%" y1="0%" x2="100%" y2="100%">
      <stop offset="0%" style="stop-color:#4facfe;stop-opacity:1" />
      <stop offset="100%" style="stop-color:#00f2fe;stop-opacity:1" />
    </linearGradient>
  </defs>
  <rect width="400" height="250" fill="url(#chatGrad)"/>
  
  <!-- Phone mockup -->
  <rect x="150" y="20" width="100" height="180" rx="20" fill="#2c2c2c"/>
  <rect x="160" y="35" width="80" height="150" rx="8" fill="white"/>
  
  <!-- Header -->
  <rect x="160" y="35" width="80" height="25" rx="8" fill="#4facfe"/>
  <circle cx="175" cy="47.5" r="6" fill="white"/>
  <text x="185" y="45" font-family="Arial, sans-serif" font-size="8" font-weight="bold" fill="white">Chat</text>
  <text x="185" y="52" font-family="Arial, sans-serif" font-size="6" fill="rgba(255,255,255,0.8)">Online</text>
  
  <!-- Messages -->
  <!-- Incoming message -->
  <rect x="165" y="70" width="50" height="20" rx="10" fill="#e5e5ea"/>
  <text x="170" y="77" font-family="Arial, sans-serif" font-size="7" fill="#333">¡Hola! ¿Cómo estás?</text>
  <text x="170" y="84" font-family="Arial, sans-serif" font-size="7" fill="#333">¿Todo bien?</text>
  
  <!-- Outgoing message -->
  <rect x="185" y="100" width="50" height="15" rx="10" fill="#4facfe"/>
  <text x="190" y="107" font-family="Arial, sans-serif" font-size="7" fill="white">¡Muy bien!</text>
  <text x="190" y="113" font-family="Arial, sans-serif" font-size="7" fill="white">Gracias 😊</text>
  
  <!-- Incoming message -->
  <rect x="165" y="125" width="45" height="15" rx="10" fill="#e5e5ea"/>
  <text x="170" y="132" font-family="Arial, sans-serif" font-size="7" fill="#333">Excelente!</text>
  <text x="170" y="138" font-family="Arial, sans-serif" font-size="7" fill="#333">¿Nos vemos hoy?</text>
  
  <!-- Outgoing message -->
  <rect x="190" y="150" width="45" height="15" rx="10" fill="#4facfe"/>
  <text x="195" y="157" font-family="Arial, sans-serif" font-size="7" fill="white">Claro! A las 5pm</text>
  <text x="195" y="163" font-family="Arial, sans-serif" font-size="7" fill="white">en el café 📅</text>
  
  <!-- Input area -->
  <rect x="165" y="170" width="60" height="10" rx="5" fill="#f0f0f0"/>
  <text x="170" y="177" font-family="Arial, sans-serif" font-size="6" fill="#999">Escribe un mensaje...</text>
  <circle cx="220" cy="175" r="3" fill="#4facfe"/>
  <path d="M217 175 l6 0 M220 172 l0 6" stroke="white" stroke-width="1"/>
  
  <!-- Status indicators -->
  <circle cx="225" cy="155" r="1.5" fill="#4facfe"/>
  <circle cx="228" cy="155" r="1.5" fill="#4facfe"/>
  
  <text x="200" y="235" font-family="Arial, sans-serif" font-size="14" font-weight="bold" text-anchor="middle" fill="white">Chat App</text>
</svg>
